<svg xmlns="http://www.w3.org/2000/svg" width="137.133" height="95.104" viewBox="0 0 137.133 95.104">
  <g id="合体_3" data-name="合体 3" transform="translate(137.133 95.104) rotate(180)" fill="#fff" stroke-linecap="round">
    <path d="M 120.049690246582 92.603515625 L 2.84401798248291 92.603515625 L 12.365797996521 18.95343780517578 L 92.59228515625 18.95343780517578 L 93.53668975830078 18.95343780517578 L 94.24520874023438 18.32903861999512 L 108.7624435424805 5.535439014434814 L 108.7624435424805 16.45343780517578 L 108.7624435424805 18.95343780517578 L 111.2624435424805 18.95343780517578 L 134.1105041503906 18.95343780517578 L 120.049690246582 92.603515625 Z" stroke="none"/>
    <path d="M 106.2624435424805 11.07086181640625 L 95.89811706542969 20.20462799072266 L 94.4810791015625 21.45343017578125 L 92.59229278564453 21.45343017578125 L 14.56340789794922 21.45343017578125 L 5.688034057617188 90.103515625 L 117.9818115234375 90.103515625 L 131.0880432128906 21.45343017578125 L 111.2624435424805 21.45343017578125 L 106.2624435424805 21.45343017578125 L 106.2624435424805 16.45343017578125 L 106.2624435424805 11.07086181640625 M 111.2624435424805 0 L 111.2624435424805 16.45343017578125 L 137.1329193115234 16.45343017578125 L 122.1175537109375 95.103515625 L -1.52587890625e-05 95.103515625 L 10.16820526123047 16.45343017578125 L 92.59229278564453 16.45343017578125 L 111.2624435424805 0 Z" stroke="none" fill="#020202"/>
  </g>
</svg>
